<svg xmlns="http://www.w3.org/2000/svg" width="192" height="192" fill="#000000" viewBox="0 0 256 256"><rect width="256" height="256" fill="none"></rect><path d="M128,24a80.0002,80.0002,0,0,0-80,80c0,72,80,128,80,128s80-56,80-128A80.0002,80.0002,0,0,0,128,24Zm0,112a32,32,0,1,1,32-32A32.00034,32.00034,0,0,1,128,136Z" opacity="0.2"></path><circle cx="128" cy="104" r="32" fill="none" stroke="#000000" stroke-linecap="round" stroke-linejoin="round" stroke-width="16"></circle><path d="M208,104c0,72-80,128-80,128S48,176,48,104a80,80,0,0,1,160,0Z" fill="none" stroke="#000000" stroke-linecap="round" stroke-linejoin="round" stroke-width="16"></path></svg>