<?xml version="1.0" standalone="no"?>
<!DOCTYPE svg PUBLIC "-//W3C//DTD SVG 20010904//EN"
 "http://www.w3.org/TR/2001/REC-SVG-20010904/DTD/svg10.dtd">
<svg version="1.0" xmlns="http://www.w3.org/2000/svg"
 width="512.000000pt" height="512.000000pt" viewBox="0 0 512.000000 512.000000"
 preserveAspectRatio="xMidYMid meet">
<metadata>
Created by potrace 1.14, written by Peter Selinger 2001-2017
</metadata>
<g transform="translate(0.000000,512.000000) scale(0.100000,-0.100000)"
fill="#000000" stroke="none">
<path d="M2760 5087 c0 -5 6 -5 13 -1 6 4 8 3 4 -1 -12 -14 -38 -15 -30 -2 4
7 0 6 -10 -1 -9 -8 -20 -11 -26 -8 -5 3 -11 0 -14 -8 -3 -7 -15 -16 -26 -19
-13 -3 -19 -1 -15 5 4 6 -3 5 -15 -1 -11 -7 -21 -16 -21 -22 0 -6 -5 -7 -12
-3 -8 5 -9 2 -4 -11 5 -15 4 -16 -9 -5 -9 7 -18 10 -22 6 -3 -3 -1 -6 6 -6 7
0 9 -5 6 -10 -4 -6 -10 -8 -15 -5 -4 3 -11 -2 -14 -11 -3 -8 -10 -13 -15 -9
-5 3 -13 0 -17 -6 -5 -8 -3 -9 7 -4 12 8 12 6 0 -8 -7 -9 -17 -15 -21 -12 -9
6 -26 -34 -21 -49 1 -5 -4 -4 -12 2 -12 10 -14 8 -11 -13 2 -20 -1 -24 -10
-16 -10 8 -12 4 -11 -19 1 -17 -2 -27 -8 -23 -6 4 -8 -2 -5 -15 4 -15 2 -19
-9 -15 -7 3 -13 2 -12 -3 1 -5 1 -22 0 -38 -1 -20 -5 -27 -15 -23 -10 4 -13 1
-9 -8 3 -8 9 -12 14 -9 5 3 6 -2 3 -10 -3 -9 -9 -14 -13 -11 -11 6 -7 -39 4
-47 6 -5 5 -8 -4 -8 -11 0 -11 -3 -1 -15 7 -8 9 -15 4 -15 -15 0 -8 -71 7 -81
8 -5 10 -9 4 -9 -5 0 -3 -5 5 -10 9 -6 11 -10 3 -10 -7 0 -10 -7 -7 -15 4 -8
11 -12 18 -8 7 4 7 1 -1 -7 -10 -11 -9 -16 5 -27 11 -9 12 -12 2 -7 -8 4 -4
-5 10 -21 14 -16 19 -25 13 -21 -9 5 -11 2 -7 -8 3 -9 10 -13 15 -10 5 3 9 -2
9 -10 0 -9 5 -16 11 -16 5 0 7 -4 4 -10 -3 -5 1 -10 10 -10 9 0 13 -4 10 -10
-3 -5 1 -10 10 -10 11 0 15 -5 12 -14 -4 -11 -1 -13 10 -9 11 4 14 2 9 -5 -4
-7 -1 -12 8 -12 8 0 23 -12 31 -27 10 -17 14 -20 11 -8 -6 19 -5 19 8 1 9 -10
20 -15 27 -10 7 4 10 3 7 -2 -3 -5 0 -15 8 -22 8 -7 14 -9 14 -5 0 5 8 9 19 9
12 0 17 -5 13 -15 -3 -9 -1 -12 6 -7 6 3 13 2 17 -4 4 -7 12 -7 25 0 28 15 36
12 14 -5 -16 -13 -16 -14 -1 -9 11 4 17 1 17 -7 0 -12 2 -12 9 0 6 9 10 10 16
2 5 -9 10 -9 21 0 11 9 14 9 14 -1 0 -10 3 -10 15 0 11 9 15 9 15 1 0 -9 5 -9
21 0 16 8 20 8 14 -1 -6 -9 -2 -9 14 -1 12 7 26 9 31 6 6 -3 10 -1 10 5 0 6 5
8 10 5 6 -4 7 -11 4 -17 -4 -7 -2 -8 5 -4 6 4 9 12 6 17 -6 9 8 13 33 10 6 -1
12 3 12 9 0 5 5 10 11 10 5 0 7 -6 4 -12 -4 -7 0 -5 8 5 8 10 24 19 35 20 17
1 19 4 9 16 -8 9 -8 12 -1 8 6 -4 29 3 50 14 22 11 30 18 20 14 -19 -6 -19 -5
-2 14 10 11 27 23 38 27 11 3 17 12 14 20 -3 7 -2 13 2 13 26 -4 51 27 44 55
-2 5 4 6 13 2 10 -3 14 -2 10 5 -4 6 0 18 8 27 8 9 13 25 12 35 -2 9 0 17 4
17 4 0 8 6 9 13 2 22 7 42 16 56 6 10 5 12 -2 7 -7 -4 -12 -2 -12 3 0 6 3 11
8 11 9 0 9 86 -1 96 -4 4 -2 13 4 21 9 10 8 13 -1 13 -8 0 -10 3 -7 7 4 3 2
12 -5 20 -9 11 -7 12 8 8 12 -4 9 0 -6 9 -14 9 -19 15 -11 16 12 0 12 3 3 12
-9 9 -9 15 1 27 9 12 9 13 0 7 -8 -4 -13 -2 -13 4 0 6 -5 8 -10 5 -6 -4 -10
-3 -9 2 4 22 -2 34 -13 27 -9 -5 -9 -2 1 9 9 11 10 17 2 17 -6 0 -11 7 -11 16
0 8 -4 12 -10 9 -10 -6 -15 9 -10 30 1 6 -1 7 -5 3 -9 -9 -47 30 -40 42 3 5
-4 7 -15 5 -11 -2 -18 0 -15 6 4 5 1 9 -5 9 -6 0 -8 6 -4 13 4 6 3 9 -1 4 -5
-4 -17 1 -28 10 -15 13 -18 14 -13 3 4 -8 -1 -4 -12 9 -11 13 -24 21 -31 17
-6 -4 -11 -2 -11 3 0 6 -6 10 -12 9 -7 -2 -12 2 -11 8 1 7 -8 9 -24 6 -20 -4
-24 -2 -18 9 8 12 6 12 -8 0 -10 -8 -21 -11 -24 -7 -4 4 -2 10 4 14 6 4 -36 7
-93 7 -57 0 -104 -4 -104 -8z"/>
<path d="M1785 4110 c-3 -5 -12 -7 -20 -3 -8 3 -15 1 -15 -4 0 -5 -9 -9 -20
-10 -13 -1 -18 3 -14 10 3 7 -2 3 -10 -7 -12 -15 -16 -16 -16 -5 0 8 -3 10 -8
4 -4 -6 -16 -11 -27 -11 -11 0 -19 -5 -18 -11 1 -6 -11 -9 -29 -8 -23 2 -32
-2 -35 -16 -3 -10 -9 -16 -14 -13 -5 3 -7 11 -3 17 3 7 0 5 -8 -4 -7 -9 -19
-14 -27 -11 -8 3 -11 0 -7 -7 4 -6 2 -12 -3 -12 -6 -1 -15 -3 -21 -4 -5 -1
-15 -3 -21 -4 -5 0 -7 -5 -4 -11 3 -5 -3 -10 -15 -10 -12 0 -18 -4 -15 -10 6
-9 -8 -14 -27 -11 -5 0 -8 -5 -8 -13 0 -7 -8 -20 -17 -27 -16 -13 -17 -12 -4
4 8 11 9 17 2 17 -6 0 -13 -11 -17 -25 -3 -14 -10 -22 -15 -19 -5 3 -9 0 -9
-6 0 -6 -4 -8 -10 -5 -6 3 -7 -1 -4 -9 7 -19 -12 -22 -20 -3 -3 6 -3 0 -1 -16
2 -15 0 -25 -6 -22 -5 4 -9 1 -9 -5 0 -6 -4 -9 -9 -5 -5 3 -13 0 -17 -6 -4 -8
-3 -9 4 -5 7 4 12 2 12 -3 0 -6 -7 -11 -15 -11 -8 0 -15 -5 -15 -11 0 -5 -4
-7 -10 -4 -6 3 -7 -1 -4 -9 4 -10 1 -16 -9 -16 -8 0 -18 -7 -21 -16 -4 -10 -2
-13 6 -8 7 4 8 3 4 -4 -4 -7 -14 -12 -23 -12 -9 0 -13 -3 -9 -7 3 -4 -4 -13
-16 -20 -13 -7 -17 -12 -9 -13 9 0 4 -9 -12 -24 -14 -13 -23 -27 -20 -30 4 -3
1 -6 -5 -6 -7 0 -12 -5 -12 -11 0 -13 -26 -40 -33 -33 -2 3 -7 -2 -11 -11 -4
-11 -2 -14 7 -10 6 4 3 -1 -7 -9 -11 -9 -16 -16 -12 -16 4 0 0 -7 -9 -16 -9
-9 -14 -23 -11 -31 4 -10 1 -11 -14 -3 -16 9 -18 7 -14 -16 3 -16 1 -23 -6
-19 -9 5 -15 -14 -11 -37 0 -4 -6 -5 -14 -2 -11 5 -13 2 -9 -10 4 -9 0 -18 -9
-22 -9 -3 -14 -14 -12 -25 2 -11 0 -17 -6 -14 -5 4 -9 -4 -9 -15 0 -15 -5 -20
-15 -17 -11 5 -12 1 -5 -19 7 -17 7 -23 0 -19 -6 4 -13 -7 -16 -24 -4 -17 -10
-28 -15 -25 -11 6 -23 -41 -14 -56 3 -6 1 -9 -6 -8 -6 2 -14 -3 -16 -10 -3 -8
1 -10 14 -6 17 6 17 6 1 -7 -15 -12 -24 -36 -27 -72 -1 -5 -4 -6 -8 -4 -12 8
-10 -67 2 -75 6 -5 6 -8 -2 -8 -7 0 -13 -7 -13 -16 0 -9 5 -12 13 -8 9 5 9 4
0 -6 -9 -9 -9 -19 -2 -33 8 -14 8 -18 0 -13 -6 4 -11 2 -11 -3 0 -6 7 -11 15
-11 9 0 12 -6 8 -16 -3 -8 5 -26 18 -41 13 -14 18 -23 12 -19 -9 5 -11 2 -7
-8 3 -9 12 -12 22 -9 9 4 14 3 10 -1 -4 -5 4 -18 17 -31 14 -12 22 -25 18 -29
-4 -4 0 -4 8 -1 10 4 20 -2 28 -17 9 -18 10 -19 6 -3 -5 18 -4 18 12 -2 10
-12 29 -24 42 -26 14 -2 27 -9 29 -15 2 -7 8 -10 13 -6 5 3 9 0 9 -5 0 -6 5
-11 11 -11 5 0 7 6 3 13 -4 6 2 4 13 -6 11 -9 23 -14 26 -10 4 3 7 1 7 -6 0
-6 8 -11 18 -9 10 2 16 -2 14 -11 -3 -12 0 -12 12 -1 11 8 16 9 16 1 0 -6 12
-11 27 -11 14 0 35 -8 45 -17 11 -10 19 -13 18 -8 -5 21 1 29 9 16 10 -16 121
-24 121 -9 0 5 10 3 23 -3 20 -11 21 -11 9 4 -12 15 -10 16 22 14 19 -2 33 0
30 5 -3 4 7 13 21 18 16 6 23 14 19 22 -4 6 -3 8 4 5 14 -9 43 3 36 14 -3 5 0
9 6 9 6 0 8 5 5 10 -3 6 1 10 10 10 9 0 13 5 10 10 -3 6 2 10 12 10 15 0 16 2
3 10 -11 7 -11 10 -2 10 7 0 10 5 7 10 -3 6 -1 10 5 10 6 0 8 5 5 10 -3 6 -1
10 5 10 7 0 10 7 6 15 -3 8 -1 15 5 15 6 0 7 5 4 10 -3 6 -2 10 4 10 5 0 8 9
6 20 -2 11 1 20 7 20 5 0 7 7 4 16 -3 8 -2 12 4 9 6 -3 10 -2 10 4 0 5 -6 12
-12 14 -10 4 -10 6 0 6 6 1 12 8 12 17 0 8 5 12 11 8 7 -4 7 1 -1 16 -10 18
-9 21 1 15 9 -6 11 -2 6 14 -3 14 0 24 8 27 8 3 11 13 8 21 -4 10 -2 14 4 10
5 -3 10 -1 11 6 6 50 17 84 30 93 12 9 12 13 2 19 -9 6 -11 4 -5 -5 6 -9 4
-11 -5 -5 -10 6 -10 10 2 19 8 6 14 21 13 34 -1 13 3 26 8 29 6 4 7 1 2 -7 -6
-9 -4 -11 4 -6 7 5 10 14 7 22 -3 7 -1 16 5 19 5 4 7 18 5 31 -4 22 -3 24 10
13 12 -10 15 -10 12 2 -2 8 -7 17 -13 21 -6 5 -5 8 3 8 7 0 10 5 7 10 -3 6 -1
10 4 10 6 0 11 5 11 11 0 5 -6 7 -12 4 -7 -4 -5 0 6 9 10 8 15 19 11 25 -3 6
0 11 7 11 9 0 9 3 -2 10 -12 8 -12 10 5 10 17 0 17 2 5 10 -13 8 -9 13 10 12
3 0 5 14 5 31 0 19 5 31 11 30 7 -1 10 6 7 16 -3 10 0 22 5 25 6 3 8 16 4 28
-3 13 -1 19 5 15 7 -5 9 1 5 15 -3 15 -2 19 7 14 6 -4 11 -4 10 1 -4 22 2 54
9 49 5 -3 9 1 9 9 0 8 -5 11 -11 8 -6 -4 -5 1 2 10 8 9 10 22 6 28 -5 8 -2 10
8 7 11 -5 14 0 12 18 -1 13 2 24 7 24 5 0 9 5 9 11 0 5 -5 7 -12 3 -7 -5 -8
-3 -2 7 4 8 9 20 11 28 1 8 7 17 13 21 9 6 9 9 -1 13 -9 4 -10 6 -2 6 7 1 10
7 7 15 -3 8 0 17 5 21 6 3 8 12 4 18 -4 7 -9 23 -9 37 -3 39 -3 40 -21 41 -10
0 -13 3 -7 5 7 3 2 16 -15 32 -14 16 -29 26 -33 24 -5 -2 -8 2 -8 8 0 6 -8 9
-18 5 -11 -3 -30 3 -45 15 -18 15 -28 17 -33 9 -4 -8 -3 -9 4 -5 7 4 12 2 12
-4 0 -7 -7 -9 -16 -6 -9 3 -18 6 -20 6 -3 0 -2 5 1 10 3 6 4 10 1 10 -3 0 -7
-4 -11 -10z"/>
<path d="M1850 4105 c0 -7 30 -13 34 -7 3 4 -4 9 -15 9 -10 1 -19 0 -19 -2z"/>
<path d="M2351 3991 c-1 -7 -7 -11 -16 -7 -8 3 -15 0 -15 -7 0 -9 -3 -8 -9 1
-6 10 -10 9 -14 -7 -3 -12 -13 -21 -22 -21 -9 0 -14 -4 -11 -8 8 -14 -24 -53
-37 -45 -7 4 -6 -1 2 -11 8 -9 10 -16 5 -15 -20 4 -26 -2 -15 -15 9 -11 9 -16
0 -22 -8 -5 -9 -3 -4 6 5 9 4 11 -4 6 -9 -6 -9 -11 0 -22 9 -11 9 -14 0 -14
-7 0 -9 -4 -6 -10 3 -5 1 -10 -4 -10 -6 0 -11 -5 -11 -11 0 -5 6 -7 13 -3 10
6 10 4 0 -7 -7 -7 -13 -21 -13 -31 0 -10 -6 -18 -12 -18 -9 0 -8 -4 2 -10 14
-9 7 -15 -14 -11 -5 1 -4 -4 3 -12 9 -12 8 -16 -5 -21 -12 -5 -14 -10 -7 -17
12 -12 6 -49 -7 -49 -5 0 -7 -8 -6 -17 2 -10 -4 -24 -13 -31 -9 -8 -11 -11 -4
-8 6 4 14 2 18 -4 3 -5 -1 -10 -10 -10 -11 0 -15 -5 -11 -15 3 -8 0 -15 -7
-15 -8 0 -6 -4 3 -10 11 -7 11 -10 2 -10 -7 0 -11 -4 -8 -8 3 -5 -1 -20 -9
-35 -10 -20 -11 -27 -2 -27 8 0 7 -3 -2 -9 -7 -5 -10 -14 -7 -20 4 -6 2 -11
-5 -11 -7 0 -9 -3 -6 -7 4 -3 -1 -12 -11 -20 -9 -8 -11 -12 -4 -8 6 3 12 1 12
-4 0 -6 -5 -11 -11 -11 -8 0 -7 -6 2 -17 8 -9 9 -14 3 -10 -7 4 -15 0 -18 -9
-3 -8 -2 -13 2 -10 5 3 9 -1 9 -9 0 -8 -4 -12 -9 -9 -8 5 -12 -9 -9 -33 1 -7
-2 -13 -8 -13 -5 0 -8 -11 -6 -25 1 -14 -2 -25 -8 -25 -5 0 -7 -9 -4 -20 3
-11 0 -23 -5 -27 -7 -4 -8 -1 -3 7 5 9 4 11 -3 6 -9 -5 -9 -13 -2 -26 7 -13 7
-21 -2 -26 -7 -5 -8 -3 -3 6 5 9 4 11 -3 6 -9 -5 -9 -13 -1 -28 9 -16 8 -19
-2 -13 -9 6 -11 4 -6 -8 3 -8 0 -18 -8 -21 -8 -3 -12 -16 -11 -30 2 -14 0 -26
-4 -26 -4 0 -6 -10 -5 -22 1 -13 -2 -26 -7 -29 -5 -3 -10 -20 -12 -37 -1 -16
-9 -38 -16 -48 -13 -16 -13 -17 0 -9 12 7 11 3 -3 -18 -12 -19 -14 -27 -5 -27
8 -1 7 -5 -4 -14 -14 -10 -15 -15 -5 -26 8 -8 8 -11 1 -7 -7 4 -15 0 -18 -9
-4 -10 -2 -13 7 -8 9 5 9 4 0 -6 -6 -7 -9 -19 -6 -28 4 -9 2 -13 -4 -9 -6 4
-9 -3 -7 -18 1 -16 -2 -23 -9 -18 -6 4 -8 0 -5 -9 4 -8 2 -21 -2 -29 -5 -7 -5
-18 1 -25 7 -8 5 -17 -6 -27 -9 -9 -11 -18 -6 -22 6 -3 8 -12 5 -20 -4 -8 -11
-12 -17 -8 -6 3 -7 1 -3 -5 11 -18 13 -92 2 -92 -5 0 -2 -8 6 -17 16 -18 14
-48 -3 -38 -5 4 -6 -1 -3 -9 3 -9 11 -13 18 -9 6 4 6 0 -2 -9 -8 -11 -9 -17
-2 -20 6 -2 11 -20 12 -40 1 -21 4 -35 8 -33 3 2 12 -5 19 -17 7 -11 8 -17 2
-13 -6 3 -11 1 -11 -4 0 -6 5 -11 11 -11 5 0 8 -4 5 -9 -3 -5 1 -12 10 -15 10
-4 14 -12 10 -22 -5 -14 -4 -15 8 -5 13 11 15 9 11 -8 -2 -13 1 -21 10 -21 15
0 28 -27 20 -41 -4 -5 1 -6 10 -3 11 5 18 0 22 -15 3 -11 9 -19 13 -16 12 7
40 -36 33 -49 -3 -6 -3 -8 2 -4 4 4 15 -1 24 -10 11 -12 13 -13 7 -2 -5 8 3 3
17 -12 14 -16 29 -28 33 -28 4 0 19 -13 35 -29 15 -16 30 -27 33 -23 3 3 6 -3
6 -12 0 -12 5 -16 16 -12 10 4 13 2 8 -6 -5 -7 -2 -9 9 -5 11 4 15 1 12 -13
-2 -11 -1 -19 3 -19 20 3 30 -3 35 -22 3 -12 10 -18 16 -14 6 3 14 -1 17 -9 3
-9 10 -13 15 -10 5 3 9 -3 9 -13 0 -15 2 -16 10 -3 8 13 10 12 10 -3 0 -10 5
-15 10 -12 6 3 10 -1 10 -10 0 -9 4 -13 10 -10 5 3 15 -3 22 -15 7 -11 19 -20
26 -20 7 0 11 -3 9 -7 -3 -5 1 -14 9 -21 8 -7 14 -10 14 -7 0 3 11 -6 25 -20
14 -14 30 -25 36 -25 6 0 7 -4 4 -10 -3 -5 3 -10 14 -10 11 0 22 -9 26 -19 3
-10 15 -21 27 -24 14 -4 19 -11 14 -22 -3 -9 -2 -14 3 -10 15 9 41 -6 41 -24
0 -14 2 -14 10 -1 8 13 10 13 10 -2 0 -9 9 -20 20 -23 11 -3 20 -14 20 -22 0
-9 3 -14 6 -10 4 3 13 -1 21 -9 8 -8 19 -12 24 -9 5 4 6 0 3 -8 -3 -9 3 -17
16 -20 12 -3 19 -10 15 -16 -3 -7 0 -8 10 -5 11 4 14 2 9 -9 -4 -12 0 -15 18
-11 13 2 18 2 11 -2 -8 -3 -6 -11 8 -25 22 -22 16 -44 -10 -35 -12 5 -11 2 3
-9 11 -8 16 -15 12 -15 -5 0 -2 -8 5 -17 12 -14 12 -16 0 -8 -11 6 -13 4 -8
-8 4 -11 1 -17 -8 -17 -8 0 -15 -5 -15 -11 0 -5 4 -8 9 -5 5 3 11 -3 14 -14 3
-11 2 -18 -3 -15 -4 3 -10 -4 -13 -15 -3 -10 0 -21 7 -24 8 -3 7 -7 -3 -14
-10 -8 -11 -14 -1 -32 10 -18 9 -21 -1 -15 -9 6 -11 3 -6 -8 4 -12 1 -17 -11
-18 -16 0 -16 -1 0 -7 12 -5 15 -11 8 -21 -5 -9 -4 -23 2 -35 10 -20 10 -20
-7 -6 -17 14 -17 14 -7 -7 14 -26 15 -36 3 -28 -6 3 -6 -6 -1 -24 7 -25 6 -29
-8 -23 -14 5 -15 3 -5 -9 7 -9 9 -20 3 -29 -6 -9 -5 -17 3 -22 9 -6 9 -8 -1
-8 -10 0 -10 -5 -1 -21 6 -12 7 -19 1 -15 -5 3 -13 -1 -16 -10 -3 -8 -2 -12 4
-9 6 3 10 1 10 -4 0 -6 -4 -11 -9 -11 -5 0 -8 -12 -5 -26 3 -19 1 -24 -8 -18
-10 6 -10 5 -1 -7 6 -8 8 -20 4 -27 -4 -7 -6 -28 -5 -47 2 -26 0 -34 -9 -28
-7 4 -7 0 2 -10 11 -14 11 -20 1 -32 -10 -12 -10 -15 0 -15 10 0 10 -3 0 -15
-9 -11 -9 -15 -1 -15 7 0 9 -5 6 -10 -4 -6 -10 -8 -14 -6 -4 3 -7 -6 -7 -19 0
-14 4 -21 11 -17 5 3 4 -1 -3 -10 -9 -12 -10 -18 -2 -23 8 -5 8 -10 0 -20 -8
-10 -7 -16 7 -25 16 -10 16 -11 1 -6 -21 6 -23 -4 -5 -23 10 -11 10 -13 0 -7
-18 10 -16 -9 2 -24 14 -12 14 -15 -1 -31 -16 -18 -16 -19 2 -20 18 0 18 -1
-1 -9 -11 -5 -14 -9 -7 -9 7 -1 11 -5 7 -10 -3 -5 -1 -12 4 -15 5 -4 8 -18 5
-31 -2 -14 0 -25 6 -25 6 0 8 -5 5 -10 -3 -6 -1 -10 6 -10 8 0 7 -5 -2 -17
-10 -11 -10 -14 -1 -9 11 6 16 -4 14 -25 -1 -4 8 -4 20 -1 13 3 19 1 15 -5 -8
-13 24 -25 76 -28 29 -2 37 1 37 14 0 14 2 14 10 1 8 -13 10 -12 10 3 0 9 5
17 11 17 5 0 7 -5 3 -12 -5 -7 -3 -8 5 -3 7 4 11 15 8 25 -3 14 -1 17 11 13
10 -4 13 -2 8 5 -4 7 -1 15 7 18 20 7 41 59 31 75 -5 8 -3 9 6 4 10 -6 12 -3
8 13 -4 14 -2 20 5 15 6 -4 8 2 4 16 -3 14 0 24 8 27 9 4 13 19 11 45 -2 22 1
42 7 46 6 4 7 1 2 -8 -8 -12 -6 -12 8 0 15 12 15 31 1 31 -3 0 -2 -5 2 -12 4
-7 3 -8 -4 -4 -9 5 -8 14 4 31 12 18 12 24 2 28 -11 4 -11 6 0 6 7 1 10 6 6
12 -3 6 0 15 7 20 12 7 12 10 1 18 -11 6 -10 10 3 15 15 5 15 9 4 23 -10 12
-10 15 -1 9 9 -5 12 0 10 21 -1 15 3 37 10 49 8 14 8 24 1 31 -8 8 -7 13 2 18
8 6 10 4 4 -5 -5 -8 -4 -11 2 -7 5 3 8 26 7 51 -2 36 0 44 12 39 10 -4 12 0 8
10 -3 9 -13 14 -22 11 -14 -5 -14 -4 1 6 9 6 15 15 12 21 -4 5 -2 9 3 9 5 0 8
10 7 22 -1 13 4 32 10 43 7 11 12 35 11 53 -1 17 2 32 6 32 3 0 4 9 1 21 -4
12 0 25 8 30 8 5 9 9 3 9 -6 0 -11 7 -11 15 0 9 5 14 12 12 7 -3 10 8 9 32 -1
20 3 41 8 48 5 7 5 14 -2 18 -5 3 -10 12 -10 18 0 7 4 6 10 -3 7 -11 10 -7 10
18 0 24 4 31 13 26 9 -5 9 -4 0 6 -7 8 -8 21 -4 34 5 11 7 31 6 44 -1 13 3 21
9 19 7 -3 12 4 12 14 0 11 -4 19 -9 19 -5 0 -5 6 0 13 6 6 8 24 6 40 -2 15 1
27 7 27 7 0 7 7 -1 21 -7 13 -7 19 -1 15 6 -3 13 -2 17 4 3 5 1 10 -4 10 -6 0
-11 5 -11 11 0 5 4 8 8 5 5 -3 9 1 9 9 0 8 -3 12 -7 10 -4 -2 -5 8 -3 23 4 21
2 24 -6 12 -8 -11 -11 -11 -11 -2 0 7 7 15 15 18 14 6 13 8 -2 20 -13 9 -14
13 -4 14 11 0 11 3 0 17 -12 15 -12 16 1 8 8 -4 4 2 -8 15 -15 14 -22 30 -19
42 4 14 1 18 -8 14 -9 -3 -12 0 -8 10 3 8 -1 14 -11 14 -9 0 -15 6 -14 13 2 6
-3 11 -9 9 -7 -1 -13 2 -13 7 0 5 -8 17 -17 27 -10 10 -18 22 -18 28 0 6 -7
11 -15 11 -8 1 -14 6 -13 13 2 7 -4 9 -14 5 -13 -5 -15 -2 -10 11 4 10 3 15
-3 11 -6 -3 -13 1 -16 9 -3 9 -10 13 -15 10 -8 -5 -13 9 -10 28 0 4 -8 10 -19
13 -11 4 -20 12 -20 18 0 7 -4 6 -10 -3 -8 -12 -10 -11 -10 8 0 14 -6 22 -17
22 -9 0 -14 3 -10 6 8 8 -16 33 -25 27 -5 -2 -8 1 -8 7 0 6 -5 8 -12 4 -8 -5
-7 0 2 11 14 17 13 18 -2 12 -10 -3 -22 1 -30 11 -11 13 -11 14 1 7 10 -5 12
-4 7 3 -4 7 -17 12 -29 12 -18 0 -19 2 -7 10 13 8 12 10 -3 10 -10 0 -16 4
-13 9 3 5 -1 12 -10 15 -8 3 -12 10 -9 16 3 6 -1 7 -9 4 -14 -6 -21 5 -17 28
0 4 -6 5 -14 2 -8 -4 -15 -1 -15 6 0 6 -5 8 -12 4 -9 -5 -8 -2 1 9 12 15 12
17 -4 11 -13 -5 -16 -4 -11 4 4 7 1 12 -9 12 -10 0 -13 5 -9 12 5 7 2 9 -9 5
-11 -4 -15 -1 -12 13 3 14 -1 18 -15 15 -14 -3 -18 1 -15 15 3 13 -1 17 -11
13 -9 -3 -14 1 -14 12 0 10 -5 13 -12 9 -7 -5 -9 -2 -5 8 3 9 0 15 -6 14 -7 0
-13 4 -15 9 -2 6 -12 13 -22 17 -16 6 -19 16 -17 47 1 26 6 36 12 31 7 -6 11
-2 11 10 0 10 -4 16 -8 14 -4 -3 -5 2 -2 10 3 9 10 14 14 11 11 -7 7 29 -5 37
-6 5 -5 8 4 8 11 0 11 3 1 14 -9 12 -8 17 8 27 14 9 18 20 15 39 -2 18 1 30
10 33 10 4 13 18 11 46 -2 23 1 41 7 41 6 0 6 8 -1 21 -11 19 -10 20 10 9 19
-10 21 -10 11 7 -5 11 -6 25 -1 33 5 8 6 18 3 22 -2 5 1 16 8 24 7 9 13 28 14
44 1 16 7 36 15 45 11 13 10 15 -6 9 -18 -5 -18 -5 -2 9 14 11 15 16 5 27 -9
10 -9 11 1 6 13 -8 13 -9 16 51 1 22 7 47 12 55 21 26 28 41 16 34 -7 -4 -12
-2 -12 3 0 6 5 11 11 11 8 0 7 5 -1 15 -11 13 -10 14 2 10 11 -5 15 0 13 17
-1 13 5 34 13 47 8 13 9 20 3 17 -16 -10 -13 3 4 21 13 12 13 18 3 31 -8 9 -8
13 -2 9 7 -4 14 2 17 13 3 11 0 20 -6 20 -9 0 -9 2 -1 8 6 4 10 15 8 24 -2 15
1 16 19 6 19 -9 20 -9 12 3 -5 8 -2 7 7 -3 9 -11 21 -19 25 -19 4 -1 7 -5 5
-11 -1 -5 2 -7 8 -3 5 3 10 1 10 -4 0 -6 9 -11 20 -11 10 0 24 -9 30 -21 7
-12 18 -18 26 -15 7 3 13 0 11 -6 -1 -6 8 -17 21 -23 12 -7 26 -16 30 -20 4
-5 1 -5 -7 0 -9 5 -12 4 -7 -3 4 -6 13 -9 21 -5 9 3 15 -1 15 -11 0 -10 5 -13
17 -9 11 4 14 3 9 -5 -4 -7 -1 -12 8 -12 9 0 16 -5 16 -10 0 -6 12 -15 27 -21
22 -8 25 -12 13 -20 -11 -7 -8 -8 12 -5 28 5 65 -23 51 -39 -5 -4 -2 -5 5 -1
6 4 12 2 12 -3 0 -6 6 -10 13 -8 6 1 11 -3 10 -10 -2 -7 3 -10 11 -7 8 3 21
-4 29 -16 9 -13 20 -19 27 -15 7 4 14 -1 17 -13 3 -14 10 -19 21 -15 11 5 13
3 7 -8 -6 -11 -5 -12 6 -1 16 14 33 16 24 2 -4 -6 8 -10 27 -11 18 0 43 -2 56
-3 12 -2 22 2 22 7 0 5 8 3 17 -4 11 -10 14 -10 9 -1 -4 7 -2 12 4 12 6 0 8 6
4 13 -4 6 -4 9 1 5 4 -4 15 -2 23 5 13 9 14 9 8 0 -5 -9 -2 -11 8 -7 9 3 14
11 13 17 -2 11 4 13 39 16 10 1 14 7 10 16 -3 8 -2 14 2 14 22 -4 32 2 26 14
-6 9 -4 9 8 -1 14 -11 18 -11 25 1 4 7 16 17 26 20 10 4 15 11 12 17 -3 6 1 7
9 4 9 -4 16 -1 16 6 0 7 7 10 15 6 8 -3 14 -2 14 2 -4 28 2 35 16 16 11 -13
14 -14 13 -4 -2 9 4 14 15 13 11 0 16 4 13 12 -6 17 21 28 31 12 11 -17 13
-38 3 -32 -5 3 -11 1 -15 -5 -3 -5 -1 -10 6 -10 8 0 7 -5 -2 -17 -11 -13 -11
-15 -1 -9 10 6 13 3 11 -10 -2 -11 1 -25 5 -33 7 -11 5 -13 -10 -8 -18 7 -18
7 0 -8 20 -15 20 -15 0 -15 -13 0 -15 -3 -6 -8 8 -5 10 -16 6 -27 -5 -12 -4
-16 3 -12 16 10 10 -26 -7 -41 -8 -8 -10 -11 -4 -8 7 3 14 -3 17 -13 4 -15 1
-18 -12 -13 -14 5 -14 4 -2 -11 11 -14 11 -17 0 -17 -11 0 -11 -2 0 -9 12 -8
13 -15 3 -35 -8 -19 -8 -27 0 -32 6 -4 8 -3 4 4 -3 6 -1 14 6 18 7 4 10 4 6
-1 -4 -4 -2 -15 4 -24 7 -9 9 -13 4 -9 -4 4 -14 2 -21 -5 -10 -9 -9 -14 4 -25
14 -12 14 -13 -4 -7 -16 5 -18 4 -7 -6 6 -7 12 -17 12 -22 0 -4 -6 -5 -12 -1
-10 6 -10 4 0 -8 15 -19 25 -61 12 -53 -5 3 -11 1 -15 -5 -3 -5 -1 -10 6 -10
7 0 10 -3 7 -6 -4 -3 -2 -19 2 -35 5 -16 5 -27 0 -24 -5 3 -11 1 -15 -5 -3 -5
-2 -10 2 -10 14 0 13 -42 0 -59 -9 -12 -9 -13 1 -7 6 4 12 4 13 -1 0 -4 2 -18
3 -30 1 -12 -4 -25 -12 -28 -12 -4 -13 -8 -4 -17 16 -16 15 -31 0 -22 -10 6
-10 4 0 -8 15 -19 25 -61 12 -53 -5 3 -11 1 -15 -5 -3 -5 -2 -10 2 -10 14 0
13 -42 0 -59 -10 -12 -9 -14 3 -9 11 4 16 0 17 -13 1 -12 -5 -19 -15 -19 -13
0 -14 -2 -4 -8 8 -5 10 -16 6 -27 -5 -12 -4 -16 3 -12 16 10 10 -26 -7 -41 -8
-8 -10 -11 -4 -8 7 3 14 -3 17 -13 4 -15 1 -18 -12 -13 -14 5 -14 4 -2 -11 11
-14 11 -17 0 -17 -11 0 -11 -2 0 -9 12 -8 13 -15 3 -35 -8 -19 -8 -27 0 -32 6
-4 8 -3 4 4 -3 6 -1 14 6 18 7 4 10 4 6 -1 -4 -4 -2 -15 4 -24 7 -9 9 -13 4
-9 -4 4 -14 2 -21 -5 -10 -9 -9 -14 4 -25 14 -12 14 -13 -4 -7 -16 5 -18 4 -7
-6 6 -7 12 -17 12 -22 0 -4 -6 -5 -12 -1 -10 6 -10 4 0 -8 15 -19 25 -61 12
-53 -5 3 -11 1 -15 -5 -3 -5 -2 -10 2 -10 14 0 13 -42 0 -59 -10 -12 -9 -14 3
-9 11 4 16 0 17 -13 1 -12 -5 -19 -15 -19 -13 0 -14 -2 -4 -8 8 -5 10 -16 6
-27 -5 -12 -4 -16 3 -12 16 10 10 -26 -7 -41 -8 -8 -10 -11 -4 -8 7 3 14 -3
17 -13 4 -15 1 -18 -12 -13 -14 5 -14 4 -2 -11 11 -14 11 -17 0 -17 -11 0 -11
-2 0 -9 12 -8 13 -15 3 -35 -8 -19 -8 -27 0 -32 6 -4 8 -3 4 4 -3 6 -1 14 6
18 7 4 10 4 6 -1 -4 -4 -2 -15 4 -24 7 -9 9 -13 4 -9 -4 4 -14 2 -21 -5 -10
-9 -9 -14 4 -25 14 -12 14 -13 -4 -7 -16 5 -18 4 -7 -6 6 -7 12 -17 12 -22 0
-4 -6 -5 -12 -1 -10 6 -10 4 0 -8 15 -19 25 -61 12 -53 -5 3 -11 1 -15 -5 -3
-5 -1 -10 6 -10 7 0 10 -3 7 -6 -4 -3 -2 -19 2 -35 5 -16 5 -27 0 -24 -5 3
-11 1 -15 -5 -3 -5 -1 -10 6 -10 8 0 7 -5 -2 -17 -10 -11 -10 -14 -1 -9 16 10
16 -16 0 -33 -10 -11 -10 -13 0 -7 6 4 12 4 13 -1 0 -4 2 -18 3 -30 1 -12 -4
-25 -12 -28 -12 -4 -13 -8 -4 -17 16 -16 15 -31 0 -22 -10 6 -10 4 0 -8 15
-19 25 -61 12 -53 -5 3 -11 1 -15 -5 -3 -5 -2 -10 2 -10 14 0 13 -42 0 -59
-10 -12 -9 -14 3 -9 11 4 16 0 17 -13 1 -12 -5 -19 -15 -19 -13 0 -14 -2 -4
-8 8 -5 10 -16 6 -27 -5 -12 -4 -16 3 -12 16 10 10 -26 -7 -41 -8 -8 -10 -11
-4 -8 7 3 14 -3 17 -13 4 -15 1 -18 -12 -13 -14 5 -14 4 -2 -11 11 -14 11 -17
0 -17 -11 0 -11 -2 0 -9 12 -8 13 -15 3 -35 -8 -19 -8 -27 0 -32 6 -4 8 -3 4
4 -3 6 -1 14 6 18 7 4 10 4 6 -1 -4 -4 -2 -15 4 -24 7 -9 9 -13 4 -9 -4 4 -14
2 -21 -5 -10 -9 -9 -14 4 -25 14 -12 14 -13 -4 -7 -16 5 -18 4 -7 -6 6 -7 12
-17 12 -22 0 -4 -6 -5 -12 -1 -10 6 -10 4 0 -8 15 -19 25 -61 12 -53 -5 3 -11
1 -15 -5 -3 -5 -2 -10 2 -10 14 0 13 -42 0 -59 -10 -12 -9 -14 3 -9 11 4 16 0
17 -13 1 -12 -5 -19 -15 -19 -13 0 -14 -2 -4 -8 8 -5 10 -16 6 -27 -5 -12 -4
-16 3 -12 16 10 10 -26 -7 -41 -8 -8 -10 -11 -4 -8 7 3 14 -3 17 -13 4 -15 1
-18 -12 -13 -14 5 -14 4 -2 -11 11 -14 11 -17 0 -17 -11 0 -11 -2 0 -9 12 -8
13 -15 3 -35 -8 -19 -8 -27 0 -32 6 -4 8 -3 4 4 -3 6 -1 14 6 18 7 4 10 4 6
-1 -4 -4 -2 -15 4 -24 7 -9 9 -13 4 -9 -4 4 -14 2 -21 -5 -10 -9 -9 -14 4 -25
14 -12 14 -13 -3 -8 -16 6 -17 4 -6 -10 12 -13 11 -17 -1 -25 -8 -5 -9 -9 -3
-9 7 0 15 -7 18 -16 3 -8 2 -12 -4 -9 -6 3 -10 2 -10 -4 0 -5 5 -13 10 -16 6
-4 10 -14 8 -23 -6 -36 11 -42 108 -42 59 0 93 4 89 10 -3 5 2 22 12 37 15 24
15 26 1 15 -14 -12 -16 -10 -11 10 4 13 11 26 17 30 8 5 7 8 -1 8 -7 0 -13 7
-13 15 0 8 5 15 11 15 5 0 7 -5 3 -12 -5 -7 -3 -8 6 -3 10 6 10 11 -3 20 -20
14 -22 31 -4 38 10 4 10 6 0 6 -19 1 -15 29 5 34 16 4 16 5 0 6 -21 1 -24 27
-5 34 9 4 9 6 0 6 -19 1 -15 29 5 34 15 4 15 5 -2 6 -12 1 -16 6 -12 17 4 9 1
24 -6 32 -11 14 -10 15 7 8 16 -6 17 -5 8 5 -10 10 -9 15 5 26 16 14 16 14 0
9 -10 -3 -20 0 -24 6 -4 7 -3 8 4 4 8 -5 12 0 12 13 0 11 4 23 10 26 6 4 5 13
-2 25 -9 14 -9 22 1 34 9 11 10 16 2 16 -14 0 -15 37 -1 45 6 4 5 13 -2 25 -9
14 -9 22 1 34 9 11 10 16 2 16 -14 0 -15 37 -1 45 6 4 5 13 -2 25 -9 14 -9 22
1 34 9 11 10 16 2 16 -14 0 -15 37 -1 45 8 5 7 11 -1 21 -9 11 -9 21 0 40 8
19 8 24 0 18 -8 -5 -10 1 -7 19 3 15 2 24 -2 22 -16 -10 -19 25 -4 40 9 8 11
15 5 15 -18 0 -12 28 7 33 16 4 16 5 0 6 -21 1 -24 27 -5 34 9 4 9 6 0 6 -19
1 -15 29 5 34 16 4 16 5 0 6 -21 1 -24 27 -5 34 9 4 9 6 0 6 -19 1 -15 29 5
34 16 4 16 5 0 6 -21 1 -24 27 -5 34 10 4 10 6 0 6 -19 1 -15 29 5 34 16 4 16
5 0 6 -21 1 -24 27 -5 34 10 4 10 6 0 6 -19 1 -15 29 5 34 16 4 16 5 0 6 -21
1 -24 27 -5 34 9 4 9 6 0 6 -19 1 -15 29 5 34 16 4 16 5 0 6 -21 1 -24 27 -5
34 10 4 10 6 0 6 -19 1 -15 29 5 34 16 4 16 5 0 6 -21 1 -24 27 -5 34 9 4 9 6
0 6 -19 1 -15 29 5 34 15 4 15 5 -2 6 -12 1 -16 6 -12 17 4 9 1 24 -6 32 -11
14 -10 15 7 8 16 -6 17 -5 8 5 -10 10 -9 15 5 26 16 14 16 14 0 9 -10 -3 -20
0 -24 6 -4 7 -3 8 4 4 8 -5 12 0 12 13 0 11 4 23 10 26 6 4 5 13 -2 25 -9 14
-9 22 1 34 9 11 10 16 2 16 -14 0 -15 37 -1 45 6 4 5 13 -2 25 -9 14 -9 22 1
34 9 11 10 16 2 16 -14 0 -15 37 -1 45 6 4 5 13 -2 25 -9 14 -9 22 1 34 9 11
10 16 2 16 -14 0 -15 37 -1 45 8 5 7 11 -1 21 -9 11 -9 21 0 40 8 19 8 24 0
18 -8 -5 -10 1 -7 19 3 15 2 24 -2 22 -16 -10 -19 25 -4 40 9 8 11 15 5 15
-18 0 -12 28 7 33 16 4 16 5 0 6 -21 1 -24 27 -5 34 10 4 10 6 0 6 -19 1 -15
29 5 34 16 4 16 5 0 6 -21 1 -24 27 -5 34 10 4 10 6 0 6 -19 1 -15 29 5 34 16
4 16 5 0 6 -21 1 -24 27 -5 34 10 4 10 6 0 6 -19 1 -15 29 5 34 16 4 16 5 0 6
-21 1 -24 27 -5 34 10 4 10 6 0 6 -19 1 -15 29 5 34 16 4 16 5 0 6 -21 1 -24
27 -5 34 9 4 9 6 0 6 -19 1 -15 29 5 34 16 4 16 5 0 6 -21 1 -24 27 -5 34 10
4 10 6 0 6 -19 1 -15 29 5 34 16 4 16 5 0 6 -21 1 -24 27 -5 34 10 4 10 6 0 6
-19 1 -15 29 5 34 15 4 15 5 -2 6 -12 1 -16 6 -12 17 4 9 1 24 -6 32 -11 14
-10 15 7 8 16 -6 17 -5 8 5 -10 10 -9 15 5 26 16 14 16 14 0 9 -10 -3 -20 0
-24 6 -4 7 -3 8 4 4 8 -5 12 0 12 13 0 11 4 23 10 26 6 4 5 13 -2 25 -9 14 -9
22 1 34 9 11 10 16 2 16 -14 0 -15 37 -1 45 8 5 7 11 -1 21 -6 7 -9 21 -5 29
3 9 0 33 -8 55 -9 26 -10 38 -3 37 6 -1 11 5 12 13 0 8 5 15 10 15 29 2 54 17
48 31 -3 8 -2 14 3 12 14 -4 74 24 69 32 -3 4 2 11 11 14 8 3 12 11 8 17 -4 8
-3 9 4 5 7 -4 12 -2 12 4 0 6 5 8 10 5 6 -3 10 1 10 9 0 9 4 16 9 16 14 0 23
33 10 40 -6 5 -3 9 9 12 16 5 20 13 17 44 -2 24 -7 38 -15 36 -6 -1 -9 2 -5 8
8 13 -14 42 -26 34 -5 -3 -6 2 -3 10 5 12 0 16 -20 16 -14 0 -26 4 -26 10 0 5
-11 9 -25 8 -14 -1 -25 -7 -25 -13 0 -5 -5 -3 -10 5 -9 13 -12 13 -24 -2 -15
-20 -31 -24 -20 -5 5 9 4 9 -6 0 -7 -6 -19 -9 -28 -5 -13 5 -12 7 4 13 17 7
17 8 2 8 -21 1 -24 27 -5 34 10 4 10 6 0 6 -19 1 -15 29 5 34 16 4 16 5 0 6
-21 1 -24 27 -5 34 10 4 10 6 0 6 -20 1 -15 31 5 32 15 0 15 1 -2 8 -12 5 -16
10 -9 14 20 13 -28 86 -65 98 -20 7 -30 15 -25 22 3 7 -4 3 -17 -8 -13 -11
-20 -15 -17 -9 4 7 0 14 -8 17 -10 4 -12 1 -8 -11 6 -15 5 -15 -10 -3 -15 12
-17 12 -11 -3 3 -9 1 -16 -5 -16 -7 0 -22 -10 -34 -21 -12 -12 -15 -18 -7 -14
13 8 13 6 1 -8 -7 -9 -11 -28 -9 -42 3 -13 2 -22 -3 -20 -4 3 -10 1 -14 -5 -3
-5 -2 -10 2 -10 14 0 13 -42 0 -59 -9 -12 -9 -13 1 -7 6 4 12 4 13 -1 0 -4 2
-18 3 -30 1 -12 -4 -25 -12 -28 -12 -4 -13 -8 -4 -17 16 -16 15 -31 0 -22 -10
6 -10 4 0 -8 15 -19 25 -61 12 -53 -5 3 -11 1 -15 -5 -3 -5 -1 -10 6 -10 8 0
7 -5 -2 -17 -10 -11 -10 -14 -1 -9 16 10 15 -2 -2 -19 -10 -11 -16 -11 -26 -2
-10 9 -11 9 -5 -2 6 -11 4 -13 -8 -8 -10 4 -16 2 -14 -6 1 -7 -8 -12 -20 -11
-12 0 -21 -4 -20 -10 1 -6 -8 -11 -20 -10 -12 0 -20 -3 -17 -8 3 -4 -4 -8 -15
-8 -12 0 -21 -5 -21 -11 0 -5 -4 -8 -9 -4 -5 3 -17 -3 -27 -12 -10 -10 -19
-17 -21 -15 -10 8 -23 0 -17 -10 6 -10 4 -10 -8 0 -13 10 -17 10 -21 -2 -4 -9
-15 -13 -26 -11 -13 2 -18 -1 -15 -9 3 -8 -5 -12 -26 -12 -16 0 -30 3 -30 8 0
4 -9 8 -21 8 -14 0 -19 5 -16 14 4 11 1 13 -10 9 -12 -5 -14 -3 -8 7 5 9 4 11
-4 6 -15 -9 -44 20 -35 35 4 8 3 9 -4 5 -7 -4 -27 4 -45 18 -19 15 -39 26 -44
26 -6 0 -18 10 -27 23 -9 12 -14 15 -11 7 3 -8 -2 -5 -11 8 -9 12 -21 22 -26
22 -5 0 -16 7 -25 15 -8 8 -20 12 -26 8 -7 -4 -8 0 -4 11 4 10 3 15 -3 11 -6
-3 -10 -2 -10 4 0 6 -7 8 -15 5 -9 -4 -15 0 -15 10 0 9 -7 16 -16 16 -8 0 -12
5 -9 10 3 6 -3 10 -14 10 -11 0 -27 10 -35 21 -9 14 -21 19 -31 15 -9 -3 -14
-2 -11 3 3 4 -2 17 -10 27 -9 10 -13 13 -9 7 4 -9 1 -11 -9 -7 -9 3 -16 13
-16 21 0 10 -6 13 -16 9 -8 -3 -12 -2 -9 4 3 6 1 10 -5 10 -6 0 -9 4 -6 9 3 4
-6 7 -19 5 -14 -1 -23 2 -19 7 3 5 0 9 -6 9 -6 0 -8 5 -4 13 6 9 4 9 -8 -1
-14 -12 -16 -10 -11 10 3 13 1 19 -4 13 -11 -14 -33 -17 -33 -5 0 5 -7 10 -15
10 -8 0 -15 4 -15 10 0 5 -7 7 -15 4 -8 -4 -23 0 -32 7 -9 8 -14 9 -10 2 5 -7
1 -9 -12 -6 -11 3 -22 11 -25 18 -2 8 -15 11 -30 8 -17 -4 -26 -1 -26 7 0 9
-4 9 -17 -1 -11 -10 -14 -10 -9 -1 7 11 -16 17 -51 13 -6 -1 -15 4 -19 10 -5
8 -3 9 6 4 9 -5 11 -4 6 3 -5 9 -13 9 -28 1 -15 -8 -19 -8 -13 1 5 8 -2 11
-23 9 -19 -2 -38 3 -50 14 -13 12 -22 15 -27 8 -4 -8 -12 -6 -23 5 -15 15 -16
15 -23 -2 -7 -17 -8 -17 -8 3 -1 16 -6 21 -21 18 -11 -2 -20 1 -20 7 0 7 -5 7
-14 -1 -11 -9 -15 -9 -19 1 -4 10 -6 10 -6 -1z m1797 -796 c-3 -3 -9 2 -12 12
-6 14 -5 15 5 6 7 -7 10 -15 7 -18z m12 -50 c0 -12 -19 -12 -23 0 -4 9 -1 12
9 8 7 -3 14 -7 14 -8z m-12 -70 c-3 -3 -9 2 -12 12 -6 14 -5 15 5 6 7 -7 10
-15 7 -18z m12 -50 c0 -12 -19 -12 -23 0 -4 9 -1 12 9 8 7 -3 14 -7 14 -8z
m-12 -870 c-3 -3 -9 2 -12 12 -6 14 -5 15 5 6 7 -7 10 -15 7 -18z m12 -50 c0
-12 -19 -12 -23 0 -4 9 -1 12 9 8 7 -3 14 -7 14 -8z m-12 -70 c-3 -3 -9 2 -12
12 -6 14 -5 15 5 6 7 -7 10 -15 7 -18z m12 -50 c0 -12 -19 -12 -23 0 -4 9 -1
12 9 8 7 -3 14 -7 14 -8z m-12 -70 c-3 -3 -9 2 -12 12 -6 14 -5 15 5 6 7 -7
10 -15 7 -18z m12 -50 c0 -12 -19 -12 -23 0 -4 9 -1 12 9 8 7 -3 14 -7 14 -8z
m-12 -70 c-3 -3 -9 2 -12 12 -6 14 -5 15 5 6 7 -7 10 -15 7 -18z m12 -50 c0
-12 -19 -12 -23 0 -4 9 -1 12 9 8 7 -3 14 -7 14 -8z m-12 -870 c-3 -3 -9 2
-12 12 -6 14 -5 15 5 6 7 -7 10 -15 7 -18z m-911 -4 c0 -11 -5 -18 -9 -15 -4
3 -5 11 -1 19 7 21 12 19 10 -4z m923 -46 c0 -12 -19 -12 -23 0 -4 9 -1 12 9
8 7 -3 14 -7 14 -8z m-12 -70 c-3 -3 -9 2 -12 12 -6 14 -5 15 5 6 7 -7 10 -15
7 -18z m12 -50 c0 -12 -19 -12 -23 0 -4 9 -1 12 9 8 7 -3 14 -7 14 -8z m-12
-70 c-3 -3 -9 2 -12 12 -6 14 -5 15 5 6 7 -7 10 -15 7 -18z m12 -50 c0 -12
-19 -12 -23 0 -4 9 -1 12 9 8 7 -3 14 -7 14 -8z m-12 -70 c-3 -3 -9 2 -12 12
-6 14 -5 15 5 6 7 -7 10 -15 7 -18z m12 -50 c0 -12 -19 -12 -23 0 -4 9 -1 12
9 8 7 -3 14 -7 14 -8z"/>
<path d="M2531 3954 c0 -11 3 -14 6 -6 3 7 2 16 -1 19 -3 4 -6 -2 -5 -13z"/>
<path d="M1985 3841 c-3 -5 -2 -12 3 -15 5 -3 9 1 9 9 0 17 -3 19 -12 6z"/>
<path d="M3236 3057 c3 -10 9 -15 12 -12 3 3 0 11 -7 18 -10 9 -11 8 -5 -6z"/>
<path d="M2795 3011 c-3 -5 -2 -12 3 -15 5 -3 9 1 9 9 0 17 -3 19 -12 6z"/>
<path d="M2665 2490 c-3 -5 -1 -10 4 -10 6 0 11 5 11 10 0 6 -2 10 -4 10 -3 0
-8 -4 -11 -10z"/>
<path d="M4145 2240 c-3 -5 -1 -10 4 -10 6 0 11 5 11 10 0 6 -2 10 -4 10 -3 0
-8 -4 -11 -10z"/>
<path d="M1781 1874 c-11 -13 -10 -18 5 -30 11 -9 13 -13 7 -9 -8 4 -13 0 -13
-10 0 -9 -4 -14 -9 -10 -6 3 -6 -7 -1 -26 8 -26 6 -35 -8 -46 -9 -8 -11 -12
-4 -8 15 7 16 -11 2 -20 -8 -5 -7 -12 2 -23 10 -12 10 -14 1 -8 -7 4 -13 2
-13 -3 0 -6 6 -11 13 -11 9 0 8 -3 -2 -9 -7 -5 -10 -14 -7 -20 4 -6 3 -11 -2
-11 -5 0 -6 -14 -4 -31 4 -25 2 -30 -9 -24 -12 7 -12 6 -1 -7 10 -12 9 -18 -3
-28 -8 -7 -15 -18 -14 -24 0 -7 2 -6 6 2 2 6 9 12 15 12 6 0 4 -10 -4 -22 -8
-14 -14 -47 -14 -81 1 -40 -3 -56 -11 -53 -7 3 -10 -3 -7 -18 2 -12 -5 -39
-15 -59 -10 -20 -14 -34 -7 -30 6 3 1 -4 -11 -16 -27 -26 -31 -39 -5 -20 15
12 15 12 -1 -8 -10 -11 -19 -30 -20 -41 0 -11 -4 -19 -7 -18 -3 2 -14 -16 -26
-40 -11 -24 -16 -40 -11 -37 6 4 7 1 1 -8 -9 -14 -10 -19 -13 -40 0 -5 -5 -7
-11 -4 -6 4 -10 -5 -10 -19 0 -14 -5 -26 -11 -26 -5 0 -7 -4 -4 -10 3 -5 1
-10 -5 -10 -7 0 -9 -7 -6 -16 5 -12 2 -15 -9 -10 -11 4 -14 2 -8 -7 11 -18 13
-38 2 -31 -5 3 -9 0 -9 -6 0 -6 -4 -9 -9 -5 -6 3 -8 -4 -6 -15 5 -28 -4 -52
-18 -43 -6 4 -8 0 -4 -10 4 -10 2 -17 -4 -17 -6 0 -9 -7 -5 -15 3 -10 -1 -15
-12 -15 -15 0 -15 -2 -2 -10 13 -9 7 -14 -12 -11 -4 0 -5 -6 -2 -14 4 -8 1
-15 -6 -15 -10 0 -10 -3 0 -15 11 -13 10 -14 -4 -9 -12 5 -15 2 -10 -9 3 -9
-3 -23 -15 -34 -12 -9 -21 -22 -21 -28 0 -5 5 -3 10 5 7 10 10 11 10 2 0 -7
-6 -15 -14 -18 -8 -3 -12 -12 -9 -20 3 -7 -2 -17 -11 -20 -9 -3 -13 -10 -10
-15 3 -5 0 -9 -6 -9 -6 0 -8 -4 -5 -10 3 -5 1 -10 -5 -10 -8 0 -8 -6 0 -20 9
-16 8 -18 -5 -14 -14 6 -21 -12 -16 -40 1 -5 -6 -6 -15 -2 -14 5 -15 4 -5 -8
8 -9 8 -15 1 -18 -5 -1 -12 -14 -15 -28 -3 -14 -9 -26 -14 -28 -6 -2 -7 -10
-4 -19 4 -10 2 -14 -5 -9 -6 3 -13 2 -17 -4 -3 -5 -1 -10 6 -10 7 0 5 -9 -6
-26 -11 -18 -12 -24 -4 -18 12 7 12 5 1 -9 -8 -9 -10 -22 -6 -29 6 -10 4 -10
-9 0 -15 12 -15 11 -7 -18 7 -25 6 -31 -4 -27 -7 3 -13 -1 -13 -9 0 -9 6 -13
16 -9 12 5 11 2 -3 -14 -11 -12 -14 -21 -7 -26 6 -3 11 -14 11 -24 0 -10 8
-25 18 -32 16 -13 16 -13 2 6 -11 15 -7 14 13 -4 15 -14 27 -19 27 -13 0 7 4
12 10 12 5 0 7 -7 4 -14 -4 -12 1 -14 22 -10 16 3 31 8 34 12 3 4 12 8 20 10
8 2 17 8 18 13 3 6 10 5 18 -2 12 -10 13 -9 8 5 -5 12 -2 15 12 9 12 -4 15 -3
10 5 -6 11 5 17 27 13 4 0 6 3 5 7 -2 4 13 23 32 42 19 19 34 41 33 50 -2 9 0
10 3 3 9 -20 24 -15 24 6 0 11 9 26 20 34 11 8 17 17 13 20 -3 4 1 7 11 7 9 0
14 5 11 10 -3 6 2 10 12 11 11 0 13 3 5 6 -8 3 -5 11 10 25 13 11 16 17 8 13
-8 -4 -5 2 8 12 13 10 25 28 26 38 2 11 9 19 15 18 6 -2 13 8 17 22 3 14 10
22 15 19 5 -3 9 -2 8 3 -4 21 2 44 10 39 5 -3 12 6 15 19 4 14 11 23 17 19 6
-3 9 2 7 12 -2 12 2 18 11 16 12 -3 12 -1 0 14 -8 10 -9 15 -2 11 7 -5 17 1
23 13 6 12 16 18 23 13 8 -5 8 -2 -1 9 -10 13 -10 17 3 22 8 3 15 12 15 21 0
8 5 15 10 15 6 0 10 9 10 21 0 14 5 19 14 16 9 -4 13 0 12 11 -3 18 15 42 26
36 4 -3 5 4 3 16 -2 11 1 23 7 26 7 5 8 2 3 -6 -5 -9 -4 -11 4 -6 7 4 10 13 8
19 -2 6 6 20 17 30 12 10 14 16 6 12 -8 -4 -5 3 8 14 13 11 23 22 22 25 -1 21
1 26 10 21 9 -5 15 16 11 38 -1 5 3 6 9 2 5 -3 10 -1 10 5 0 6 5 8 13 4 9 -6
9 -4 -1 8 -10 13 -10 17 3 22 8 3 15 15 15 27 0 14 5 19 14 16 11 -4 13 -1 9
10 -5 12 -3 14 8 8 8 -4 11 -4 6 0 -4 5 0 19 8 32 9 13 13 29 9 35 -5 8 -1 9
10 5 14 -5 17 -3 13 8 -4 8 1 21 9 30 12 11 12 15 2 15 -10 1 -9 4 2 13 8 7
16 23 16 37 2 39 3 42 14 35 7 -4 9 2 5 18 -4 14 -2 28 4 32 6 3 9 11 6 16 -4
5 2 9 12 9 10 0 14 4 8 8 -14 10 -13 44 1 49 7 2 9 13 6 25 -4 16 -2 19 9 13
8 -5 11 -4 6 1 -5 5 -16 9 -25 9 -9 0 -16 6 -14 13 1 8 -2 11 -8 7 -5 -3 -10
-2 -10 2 0 5 -10 13 -22 18 -13 6 -22 16 -21 22 2 7 -6 10 -17 8 -13 -3 -18 0
-14 7 5 8 1 9 -11 4 -15 -5 -16 -4 -5 9 11 13 10 14 -4 9 -10 -4 -18 0 -22 10
-3 9 -10 13 -15 10 -5 -3 -9 2 -9 11 0 11 -5 15 -15 11 -10 -4 -15 1 -16 17 0
21 -1 21 -9 2 l-9 -20 -1 20 c-2 11 -2 24 -1 29 1 5 -6 3 -16 -4 -10 -8 -15
-11 -11 -6 7 8 -26 46 -41 46 -5 0 -15 8 -22 18 -11 14 -11 15 1 5 8 -7 21
-13 29 -13 9 0 0 8 -19 19 -19 10 -35 25 -35 32 0 8 -8 13 -18 11 -10 -2 -16
3 -15 10 2 7 -3 12 -10 10 -8 -1 -11 2 -7 8 3 5 2 10 -4 10 -6 0 -7 7 -4 17 4
11 3 14 -5 9 -7 -4 -15 6 -21 26 -5 18 -10 25 -10 16 -1 -10 -5 -18 -11 -18
-5 0 -7 7 -4 15 8 19 3 19 -15 -1z m-431 -1778 c0 -2 -7 -7 -16 -10 -8 -3 -12
-2 -9 4 6 10 25 14 25 6z"/>
<path d="M4145 960 c-3 -5 -1 -10 4 -10 6 0 11 5 11 10 0 6 -2 10 -4 10 -3 0
-8 -4 -11 -10z"/>
<path d="M2780 264 c0 -8 5 -12 10 -9 6 4 8 11 5 16 -9 14 -15 11 -15 -7z"/>
<path d="M2780 171 c0 -6 4 -13 10 -16 6 -3 7 1 4 9 -7 18 -14 21 -14 7z"/>
</g>
</svg>
