<?xml version="1.0" encoding="utf-8"?>
<svg version="1.0" xmlns="http://www.w3.org/2000/svg" width="512.000000pt" height="512.000000pt" viewBox="0 0 512.000000 512.000000" preserveAspectRatio="xMidYMid meet" xmlns:bx="https://boxy-svg.com">
  <path d="M 330.395 49.267 C 330.395 75.444 309.035 96.664 282.687 96.664 C 256.339 96.664 234.979 75.444 234.979 49.267 C 234.979 23.09 256.339 1.87 282.687 1.87 C 309.035 1.87 330.395 23.09 330.395 49.267 Z" style="stroke: rgb(0, 0, 0); paint-order: stroke;"/>
  <path style="stroke: rgb(0, 0, 0);" d="M 204.16 117.522 L 164.985 241.458 C 162.134 246.918 145.724 253.733 143.158 252.06 C 130.434 254.911 89.767 234.242 96.386 237.093 L 87.032 225.244 C 85.463 221.967 84.356 206.465 86.978 201.885 C 86.585 201.688 89.821 187.635 90.881 188.165 C 87.796 188.165 106.401 155.398 108.235 155.398 C 106.178 154.37 141.935 114.251 143.158 114.862 C 144.821 111.536 172.885 97.192 171.222 100.518 C 171.222 98.461 187.831 98.443 187.831 99.666 C 189.208 99.207 199.364 105.175 199.056 105.278 C 199.437 104.859 203.75 109.557 204.17 117.412"/>
  <path style="stroke: rgb(0, 0, 0);" d="M 411.471 177.53 C 417.744 173.049 425.169 169.849 430.291 164.087 C 438.695 154.632 429.063 142.151 418.461 143.115 C 415.343 143.399 412.983 147.044 409.857 146.879 C 408.328 146.798 408.383 144.102 408.244 142.577 C 407.755 137.194 411.052 119.6 402.329 114.615 C 394.292 110.022 388.721 116.672 387.81 123.756 C 385.859 138.93 395.161 153.023 381.895 158.709 C 372.377 162.788 363.666 172.405 353.396 171.077 C 340.317 169.386 330.477 157.98 319.518 150.643 C 309.3 143.802 300.858 134.258 289.943 128.596 C 276.757 121.755 262.13 118.12 247.999 113.54 C 242.746 111.838 237.387 109.652 231.867 109.775 C 228.217 109.856 218.361 117.783 217.349 121.068 C 217.093 121.9 151.501 267.116 193.688 305.511 C 221.525 330.846 252.192 352.978 279.726 378.642 C 281.71 380.491 280.968 384.001 280.801 386.708 C 278.879 417.938 272.947 448.986 273.273 480.274 C 273.348 487.515 272.439 505.537 285.103 507.161 C 298.62 508.894 303.558 492.475 305.537 483.5 C 314.448 443.092 322.653 402.451 328.122 361.435 C 328.812 356.261 327.149 350.399 323.82 346.378 C 308.706 328.121 290.085 313.062 273.811 295.831 C 268.736 290.458 259.249 285.992 259.829 278.624 C 262.486 244.859 274.862 212.57 282.952 179.681 C 283.134 178.943 283.934 177.643 284.565 178.068 C 302.021 189.824 317.068 205.29 335.65 215.171 C 349.57 222.573 381.191 196.362 384.046 194.737 C 384.994 194.198 386.668 193.293 387.273 194.2 C 388.267 195.691 387.264 197.785 387.273 199.577 C 387.801 300.312 387.309 401.059 388.886 501.783 C 389.033 511.187 398.695 512.182 406.093 508.236 C 408.548 506.926 408.221 502.953 408.244 500.17 C 409.118 393.164 408.603 286.152 408.782 179.143"/>
  <path style="stroke: rgb(0, 0, 0);" d="M 176.288 321.021 C 176.288 321.021 185.58458457820578 334.77920774618616 192.074 341.042 C 199.55534452046933 348.2620812346751 215.36059317120316 357.5903854594389 219.412 361.064 C 220.66994177689654 362.1425401298997 221.50324251982101 362.44732844337506 221.722 363.374 C 221.95330787320395 364.3538358746229 221.08521683043253 365.1924376496126 220.567 366.839 C 219.30428241512385 370.85111059218906 217.10984513798718 380.85396307882644 214.406 387.631 C 211.62732898876934 394.59558379599497 208.94682548668635 399.47006310525694 204.01 408.038 C 194.90144860510478 423.8460316520099 173.64718860614357 457.5293306476788 161.657 473.493 C 154.14876408961754 483.4894228612016 147.55034239168347 492.23106526546763 141.635 496.595 C 138.16571080992648 499.1544041051598 134.67823944161586 500.03431464523374 132.01 500.83 C 130.22905196317836 501.3610896197682 129.07920947829908 501.8541831162922 127.389 501.6 C 125.0977531628943 501.2554295377422 121.35495939601768 499.6706993625897 119.689 497.75 C 118.15425885900324 495.9805833273615 117.31230464548885 493.78926066850187 117.378 490.819 C 117.49889328817468 485.35309481350424 122.03737558137249 478.05919001463667 126.234 467.717 C 135.02208589372947 446.05958081936654 162.8159392510271 391.4844646631417 168.972 367.994 C 172.13588927562776 355.92114492955136 171.02313882075234 347.59914072025236 172.053 339.502 C 172.82140716604977 333.4605052050411 173.15446476587246 326.7175709270281 174.363 323.716 C 174.9136316933269 322.3484270608599 176.288 321.021 176.288 321.021 C 176.28799999999998 321.021 176.288 321.021 176.288 321.021 C 176.288 321.021 176.28800000000004 321.0210000000001 176.288 321.021" bx:d="M 176.288 321.021 R 192.074 341.042 R 219.412 361.064 R 221.722 363.374 R 220.567 366.839 R 214.406 387.631 R 204.01 408.038 R 161.657 473.493 R 141.635 496.595 R 132.01 500.83 R 127.389 501.6 R 119.689 497.75 R 117.378 490.819 R 126.234 467.717 R 168.972 367.994 R 172.053 339.502 R 174.363 323.716 R 176.288 321.021 R 176.288 321.021 Z 1@94e64955"/>
</svg>