<svg height="512" viewBox="0 0 64 64" width="512" xmlns="http://www.w3.org/2000/svg"><g id="Layer_13" data-name="Layer 13"><g fill="#f2b0ae"><path d="m34.172 7h-2.172l-11 11v7.5l17.186-17.186a6.826 6.826 0 0 0 -4.014-1.314z"/><path d="m59 18-3.143-2.357-15.437 15.437a6.824 6.824 0 0 0 3.408.92h3.172l9.143-9.143-1.143-.857z"/><path d="m45.5 11-17 17h5.672a6.842 6.842 0 0 1 1.624.2l17.204-17.2z"/><path d="m19 2a2 2 0 0 1 2 2v53a0 0 0 0 1 0 0h-4a0 0 0 0 1 0 0v-53a2 2 0 0 1 2-2z"/></g><path d="m19 1a3 3 0 0 0 -3 3v47.116c-6.119.466-12 2.412-12 5.884 0 3.9 7.729 6 15 6s15-2.1 15-6c0-3.472-5.881-5.418-12-5.884v-22.116h12.172a5.789 5.789 0 0 1 4.121 1.707 7.772 7.772 0 0 0 5.535 2.293h15.172a1 1 0 0 0 .6-1.8l-3.078-2.308 3.185-3.185a1 1 0 0 0 -.107-1.507l-3.078-2.308 3.185-3.185a1 1 0 0 0 -.107-1.507l-3.078-2.308 3.185-3.185a1 1 0 0 0 -.707-1.707h-15.172a5.789 5.789 0 0 1 -4.121-1.707 7.772 7.772 0 0 0 -5.535-2.293h-12.172v-2a3 3 0 0 0 -3-3zm-1 7h2v48h-2zm1-5a1 1 0 0 1 1 1v2h-2v-2a1 1 0 0 1 1-1zm13 54c0 1.631-5.064 4-13 4s-13-2.369-13-4c0-1.348 3.472-3.364 10-3.879v3.879a1 1 0 0 0 1 1h4a1 1 0 0 0 1-1v-3.879c6.528.515 10 2.531 10 3.879zm-1.086-30 15-15h4.672l-15.115 15.115a7.891 7.891 0 0 0 -1.3-.115zm23.379 1.293a1 1 0 0 0 .107 1.507l1.6 1.2h-6.586l6.822-6.823 1.242.931zm0-7a1 1 0 0 0 .107 1.507l.221.165-8.035 8.035h-2.758a5.868 5.868 0 0 1 -1.671-.243l13.794-13.794 1.527 1.145zm0-7a.977.977 0 0 0 .055 1.446l-14.058 14.061a5.886 5.886 0 0 1 -.583-.5 7.806 7.806 0 0 0 -2.095-1.5l15.802-15.8h3.172zm-11.173-2.327-15.034 15.034h-6.086v-1.086l16.248-16.248c.015.014.031.027.045.041a7.767 7.767 0 0 0 4.827 2.259zm-6.552-3.448-14.568 14.568v-4.672l10.414-10.414h1.758a5.806 5.806 0 0 1 2.396.518zm-6.982-.518-7.586 7.586v-7.586z" fill="#b1404a"/></g></svg>